<?xml version="1.0" encoding="UTF-8"?>
<svg width="96px" height="96px" viewBox="0 0 96 96" version="1.1" xmlns="http://www.w3.org/2000/svg" xmlns:xlink="http://www.w3.org/1999/xlink">
    <!-- Generator: Sketch 52.4 (67378) - http://www.bohemiancoding.com/sketch -->
    <title>icon--stream</title>
    <desc>Created with Sketch.</desc>
    <g id="icon--stream" stroke="none" stroke-width="1" fill="none" fill-rule="evenodd">
        <g id="Group-11" transform="translate(19.000000, 34.000000)" fill="#F2F2F2" fill-rule="nonzero">
            <path d="M59,10.3266196 C54.4652944,10.3349239 50.5868862,8.51654796 48.5411154,6.96166051 C41.0140769,1.48319897 33.6980769,6.90858359 33.6254615,6.96166051 C25.3541154,12.9893528 16.6198462,9.59704513 13.1547308,6.96166051 C7.84015565,3.09234645 2.6285885,4.66217498 -3.68594044e-14,5.93769253 L2.24265051e-14,1.01680806 C4.26533451,-0.462353923 10.2018528,-0.807023914 15.9027692,3.34319897 C16.2318077,3.58550667 23.3957692,8.80319897 30.8887692,3.34319897 C34.3153077,0.737814358 43.0518462,-2.65449333 51.2846154,3.34319897 C51.5017937,3.50313154 54.6976065,5.83059897 59,5.82460277 L59,10.3266196 Z M59,19.5573888 C54.4652944,19.5656931 50.5868862,17.7473172 48.5411154,16.1924297 C41.0140769,10.7139682 33.6980769,16.1393528 33.6254615,16.1924297 C25.3541154,22.2201221 16.6198462,18.8278144 13.1547308,16.1924297 C7.84015565,12.3231157 2.6285885,13.8929442 -3.68594044e-14,15.1684618 L2.24265051e-14,10.2475773 C4.26533451,8.76841531 10.2018528,8.42374532 15.9027692,12.5739682 C16.2318077,12.8162759 23.3957692,18.0339682 30.8887692,12.5739682 C34.3153077,9.96858359 43.0518462,6.5762759 51.2846154,12.5739682 C51.5017937,12.7339008 54.6976065,15.0613682 59,15.055372 L59,19.5573888 Z M59,28.7881581 C54.4652944,28.7964624 50.5868862,26.9780864 48.5411154,25.423199 C41.0140769,19.9447374 33.6980769,25.3701221 33.6254615,25.423199 C25.3541154,31.4508913 16.6198462,28.0585836 13.1547308,25.423199 C7.84015565,21.5538849 2.6285885,23.1237134 -3.68594044e-14,24.399231 L2.24265051e-14,19.4783465 C4.26533451,17.9991845 10.2018528,17.6545145 15.9027692,21.8047374 C16.2318077,22.0470451 23.3957692,27.2647374 30.8887692,21.8047374 C34.3153077,19.1993528 43.0518462,15.8070451 51.2846154,21.8047374 C51.5017937,21.96467 54.6976065,24.2921374 59,24.2861412 L59,28.7881581 Z" id="Combined-Shape"></path>
        </g>
    </g>
</svg>